<svg xmlns="http://www.w3.org/2000/svg" viewBox="0 0 24 24" fill="#ffffff">
  <path d="M12,2A10,10 0 0,1 22,12A10,10 0 0,1 12,22A10,10 0 0,1 2,12A10,10 0 0,1 12,2M12,4C9.5,4 7.29,5.14 5.9,7L7.47,8.57C8.42,7.6 9.64,7 11,7C12.55,7 13.92,7.77 14.77,9H17.9C16.85,6.07 14.06,4 12,4M12,20C14.5,20 16.71,18.86 18.1,17L16.53,15.43C15.58,16.4 14.36,17 13,17C11.45,17 10.08,16.23 9.23,15H6.1C7.15,17.93 9.94,20 12,20M7,12A1,1 0 0,0 6,13A1,1 0 0,0 7,14A1,1 0 0,0 8,13A1,1 0 0,0 7,12M17,12A1,1 0 0,0 16,13A1,1 0 0,0 17,14A1,1 0 0,0 18,13A1,1 0 0,0 17,12Z" />
</svg>
